<?xml version="1.0" encoding="UTF-8"?> <svg xmlns="http://www.w3.org/2000/svg" width="1900" height="790" viewBox="0 0 1900 790" fill="none"> <rect x="-96.2031" y="-40" width="2092.41" height="870" rx="30" fill="#1F35FF"></rect> <g filter="url(#filter0_b_61_29)"> <path d="M308.766 545.785C308.766 708.369 176.966 840.169 14.382 840.169C-148.202 840.169 -280.002 708.369 -280.002 545.785C-280.002 383.201 -148.202 361.246 14.382 361.246C176.966 361.246 308.766 383.201 308.766 545.785Z" fill="url(#paint0_linear_61_29)" fill-opacity="0.1"></path> <path d="M308.266 545.785C308.266 708.093 176.69 839.669 14.382 839.669C-147.926 839.669 -279.502 708.093 -279.502 545.785C-279.502 505.207 -271.278 473.444 -256.439 448.617C-241.6 423.794 -220.126 405.868 -193.561 392.997C-140.402 367.24 -66.9134 361.746 14.382 361.746C95.6775 361.746 169.166 367.24 222.325 392.997C248.89 405.868 270.365 423.794 285.203 448.617C300.043 473.444 308.266 505.207 308.266 545.785Z" stroke="url(#paint1_radial_61_29)"></path> </g> <g filter="url(#filter1_b_61_29)"> <path d="M497.633 682.91C497.633 845.494 365.833 977.294 203.249 977.294C40.6654 977.294 -91.1348 845.494 -91.1348 682.91C-91.1348 520.326 40.6654 498.371 203.249 498.371C365.833 498.371 497.633 520.326 497.633 682.91Z" fill="url(#paint2_linear_61_29)" fill-opacity="0.1"></path> <path d="M497.133 682.91C497.133 845.218 365.557 976.794 203.249 976.794C40.9416 976.794 -90.6348 845.218 -90.6348 682.91C-90.6348 642.332 -82.4112 610.569 -67.5714 585.742C-52.7332 560.918 -31.2584 542.993 -4.69367 530.122C48.4648 504.365 121.954 498.871 203.249 498.871C284.545 498.871 358.034 504.365 411.192 530.122C437.757 542.993 459.232 560.918 474.07 585.742C488.91 610.569 497.133 642.332 497.133 682.91Z" stroke="url(#paint3_radial_61_29)"></path> </g> <g filter="url(#filter2_b_61_29)"> <path d="M707.875 776.977C707.875 939.56 576.075 1071.36 413.491 1071.36C250.908 1071.36 119.107 939.56 119.107 776.977C119.107 614.393 250.908 592.438 413.491 592.438C576.075 592.438 707.875 614.393 707.875 776.977Z" fill="url(#paint4_linear_61_29)" fill-opacity="0.1"></path> <path d="M707.375 776.977C707.375 939.284 575.799 1070.86 413.491 1070.86C251.184 1070.86 119.607 939.284 119.607 776.977C119.607 736.398 127.831 704.636 142.671 679.809C157.509 654.985 178.984 637.059 205.549 624.188C258.707 598.432 332.196 592.938 413.491 592.938C494.787 592.938 568.276 598.432 621.434 624.188C647.999 637.059 669.474 654.985 684.312 679.809C699.152 704.636 707.375 736.398 707.375 776.977Z" stroke="url(#paint5_radial_61_29)"></path> </g> <g filter="url(#filter3_b_61_29)"> <path d="M943.946 827.007C943.946 989.591 812.146 1121.39 649.562 1121.39C486.978 1121.39 355.178 989.591 355.178 827.007C355.178 664.423 486.978 642.468 649.562 642.468C812.146 642.468 943.946 664.423 943.946 827.007Z" fill="url(#paint6_linear_61_29)" fill-opacity="0.1"></path> <path d="M943.446 827.007C943.446 989.315 811.869 1120.89 649.562 1120.89C487.254 1120.89 355.678 989.315 355.678 827.007C355.678 786.429 363.901 754.666 378.741 729.839C393.579 705.016 415.054 687.09 441.619 674.219C494.777 648.462 568.266 642.968 649.562 642.968C730.857 642.968 804.346 648.462 857.505 674.219C884.069 687.09 905.544 705.016 920.382 729.839C935.222 754.666 943.446 786.429 943.446 827.007Z" stroke="url(#paint7_radial_61_29)"></path> </g> <g filter="url(#filter4_b_61_29)"> <path d="M1176.71 826.542C1176.71 989.125 1044.91 1120.93 882.327 1120.93C719.744 1120.93 587.943 989.125 587.943 826.542C587.943 663.958 719.744 642.002 882.327 642.002C1044.91 642.002 1176.71 663.958 1176.71 826.542Z" fill="url(#paint8_linear_61_29)" fill-opacity="0.1"></path> <path d="M1176.21 826.542C1176.21 988.849 1044.64 1120.43 882.327 1120.43C720.02 1120.43 588.443 988.849 588.443 826.542C588.443 785.963 596.667 754.2 611.507 729.374C626.345 704.55 647.82 686.624 674.384 673.753C727.543 647.997 801.032 642.502 882.327 642.502C963.623 642.502 1037.11 647.997 1090.27 673.753C1116.84 686.624 1138.31 704.55 1153.15 729.374C1167.99 754.2 1176.21 785.963 1176.21 826.542Z" stroke="url(#paint9_radial_61_29)"></path> </g> <g filter="url(#filter5_b_61_29)"> <path d="M1412.59 775.601C1412.59 938.185 1280.79 1069.99 1118.2 1069.99C955.619 1069.99 823.818 938.185 823.818 775.601C823.818 613.017 955.619 591.062 1118.2 591.062C1280.79 591.062 1412.59 613.017 1412.59 775.601Z" fill="url(#paint10_linear_61_29)" fill-opacity="0.1"></path> <path d="M1412.09 775.601C1412.09 937.909 1280.51 1069.49 1118.2 1069.49C955.895 1069.49 824.318 937.909 824.318 775.601C824.318 735.023 832.542 703.26 847.382 678.433C862.22 653.609 883.695 635.684 910.259 622.813C963.418 597.056 1036.91 591.562 1118.2 591.562C1199.5 591.562 1272.99 597.056 1326.15 622.813C1352.71 635.684 1374.18 653.609 1389.02 678.433C1403.86 703.26 1412.09 735.023 1412.09 775.601Z" stroke="url(#paint11_radial_61_29)"></path> </g> <g filter="url(#filter6_b_61_29)"> <path d="M1622.45 680.686C1622.45 843.27 1490.65 975.07 1328.07 975.07C1165.48 975.07 1033.68 843.27 1033.68 680.686C1033.68 518.102 1165.48 496.147 1328.07 496.147C1490.65 496.147 1622.45 518.102 1622.45 680.686Z" fill="url(#paint12_linear_61_29)" fill-opacity="0.1"></path> <path d="M1621.95 680.686C1621.95 842.994 1490.37 974.57 1328.07 974.57C1165.76 974.57 1034.18 842.994 1034.18 680.686C1034.18 640.108 1042.41 608.345 1057.24 583.518C1072.08 558.694 1093.56 540.769 1120.12 527.898C1173.28 502.141 1246.77 496.647 1328.07 496.647C1409.36 496.647 1482.85 502.141 1536.01 527.898C1562.57 540.769 1584.05 558.694 1598.89 583.518C1613.73 608.345 1621.95 640.108 1621.95 680.686Z" stroke="url(#paint13_radial_61_29)"></path> </g> <g filter="url(#filter7_b_61_29)"> <path d="M1810.77 542.816C1810.77 705.4 1678.97 837.2 1516.39 837.2C1353.8 837.2 1222 705.4 1222 542.816C1222 380.232 1353.8 358.277 1516.39 358.277C1678.97 358.277 1810.77 380.232 1810.77 542.816Z" fill="url(#paint14_linear_61_29)" fill-opacity="0.1"></path> <path d="M1810.27 542.816C1810.27 705.124 1678.7 836.7 1516.39 836.7C1354.08 836.7 1222.5 705.124 1222.5 542.816C1222.5 502.237 1230.73 470.475 1245.57 445.648C1260.41 420.824 1281.88 402.899 1308.44 390.027C1361.6 364.271 1435.09 358.777 1516.39 358.777C1597.68 358.777 1671.17 364.271 1724.33 390.027C1750.9 402.899 1772.37 420.824 1787.21 445.648C1802.05 470.475 1810.27 502.237 1810.27 542.816Z" stroke="url(#paint15_radial_61_29)"></path> </g> <g filter="url(#filter8_b_61_29)"> <path d="M1966.12 369.897C1966.12 532.481 1834.32 664.281 1671.73 664.281C1509.15 664.281 1377.35 532.481 1377.35 369.897C1377.35 207.313 1509.15 185.358 1671.73 185.358C1834.32 185.358 1966.12 207.313 1966.12 369.897Z" fill="url(#paint16_linear_61_29)" fill-opacity="0.1"></path> <path d="M1965.62 369.897C1965.62 532.205 1834.04 663.781 1671.73 663.781C1509.43 663.781 1377.85 532.205 1377.85 369.897C1377.85 329.318 1386.07 297.556 1400.91 272.729C1415.75 247.905 1437.23 229.98 1463.79 217.108C1516.95 191.352 1590.44 185.858 1671.73 185.858C1753.03 185.858 1826.52 191.352 1879.68 217.108C1906.24 229.98 1927.72 247.905 1942.55 272.729C1957.39 297.556 1965.62 329.318 1965.62 369.897Z" stroke="url(#paint17_radial_61_29)"></path> </g> <g filter="url(#filter9_b_61_29)"> <path d="M2083.84 165.986C2083.84 328.57 1952.04 460.37 1789.46 460.37C1626.87 460.37 1495.07 328.57 1495.07 165.986C1495.07 3.40233 1626.87 -18.5531 1789.46 -18.5531C1952.04 -18.5531 2083.84 3.40233 2083.84 165.986Z" fill="url(#paint18_linear_61_29)" fill-opacity="0.1"></path> <path d="M2083.34 165.986C2083.34 328.294 1951.77 459.87 1789.46 459.87C1627.15 459.87 1495.57 328.294 1495.57 165.986C1495.57 125.408 1503.8 93.6449 1518.64 68.8184C1533.48 43.9944 1554.95 26.0687 1581.52 13.1976C1634.67 -12.5588 1708.16 -18.0531 1789.46 -18.0531C1870.75 -18.0531 1944.24 -12.5588 1997.4 13.1976C2023.97 26.0687 2045.44 43.9944 2060.28 68.8184C2075.12 93.6449 2083.34 125.408 2083.34 165.986Z" stroke="url(#paint19_radial_61_29)"></path> </g> <g filter="url(#filter10_b_61_29)"> <path d="M2156.11 -57.7497C2156.11 104.834 2024.31 236.634 1861.73 236.634C1699.14 236.634 1567.34 104.834 1567.34 -57.7497C1567.34 -220.333 1699.14 -242.289 1861.73 -242.289C2024.31 -242.289 2156.11 -220.333 2156.11 -57.7497Z" fill="url(#paint20_linear_61_29)" fill-opacity="0.1"></path> <path d="M2155.61 -57.7497C2155.61 104.558 2024.04 236.134 1861.73 236.134C1699.42 236.134 1567.84 104.558 1567.84 -57.7497C1567.84 -98.3282 1576.07 -130.091 1590.91 -154.917C1605.75 -179.741 1627.22 -197.667 1653.78 -210.538C1706.94 -236.295 1780.43 -241.789 1861.73 -241.789C1943.02 -241.789 2016.51 -236.295 2069.67 -210.538C2096.24 -197.667 2117.71 -179.741 2132.55 -154.917C2147.39 -130.091 2155.61 -98.3282 2155.61 -57.7497Z" stroke="url(#paint21_radial_61_29)"></path> </g> <g filter="url(#filter11_b_61_29)"> <path d="M2180 -289.139C2180 -126.555 2048.2 5.24472 1885.62 5.24472C1723.03 5.24472 1591.23 -126.555 1591.23 -289.139C1591.23 -451.723 1723.03 -473.678 1885.62 -473.678C2048.2 -473.678 2180 -451.723 2180 -289.139Z" fill="url(#paint22_linear_61_29)" fill-opacity="0.1"></path> <path d="M2179.5 -289.139C2179.5 -126.832 2047.92 4.74472 1885.62 4.74472C1723.31 4.74472 1591.73 -126.832 1591.73 -289.139C1591.73 -329.718 1599.96 -361.48 1614.8 -386.307C1629.63 -411.131 1651.11 -429.057 1677.67 -441.928C1730.83 -467.684 1804.32 -473.178 1885.62 -473.178C1966.91 -473.178 2040.4 -467.684 2093.56 -441.928C2120.12 -429.057 2141.6 -411.131 2156.44 -386.307C2171.28 -361.48 2179.5 -329.718 2179.5 -289.139Z" stroke="url(#paint23_radial_61_29)"></path> </g> <defs> <filter id="filter0_b_61_29" x="-288.002" y="353.246" width="604.768" height="494.923" filterUnits="userSpaceOnUse" color-interpolation-filters="sRGB"> <feFlood flood-opacity="0" result="BackgroundImageFix"></feFlood> <feGaussianBlur in="BackgroundImageFix" stdDeviation="4"></feGaussianBlur> <feComposite in2="SourceAlpha" operator="in" result="effect1_backgroundBlur_61_29"></feComposite> <feBlend mode="normal" in="SourceGraphic" in2="effect1_backgroundBlur_61_29" result="shape"></feBlend> </filter> <filter id="filter1_b_61_29" x="-99.1348" y="490.371" width="604.768" height="494.923" filterUnits="userSpaceOnUse" color-interpolation-filters="sRGB"> <feFlood flood-opacity="0" result="BackgroundImageFix"></feFlood> <feGaussianBlur in="BackgroundImageFix" stdDeviation="4"></feGaussianBlur> <feComposite in2="SourceAlpha" operator="in" result="effect1_backgroundBlur_61_29"></feComposite> <feBlend mode="normal" in="SourceGraphic" in2="effect1_backgroundBlur_61_29" result="shape"></feBlend> </filter> <filter id="filter2_b_61_29" x="111.107" y="584.438" width="604.768" height="494.923" filterUnits="userSpaceOnUse" color-interpolation-filters="sRGB"> <feFlood flood-opacity="0" result="BackgroundImageFix"></feFlood> <feGaussianBlur in="BackgroundImageFix" stdDeviation="4"></feGaussianBlur> <feComposite in2="SourceAlpha" operator="in" result="effect1_backgroundBlur_61_29"></feComposite> <feBlend mode="normal" in="SourceGraphic" in2="effect1_backgroundBlur_61_29" result="shape"></feBlend> </filter> <filter id="filter3_b_61_29" x="347.178" y="634.468" width="604.768" height="494.923" filterUnits="userSpaceOnUse" color-interpolation-filters="sRGB"> <feFlood flood-opacity="0" result="BackgroundImageFix"></feFlood> <feGaussianBlur in="BackgroundImageFix" stdDeviation="4"></feGaussianBlur> <feComposite in2="SourceAlpha" operator="in" result="effect1_backgroundBlur_61_29"></feComposite> <feBlend mode="normal" in="SourceGraphic" in2="effect1_backgroundBlur_61_29" result="shape"></feBlend> </filter> <filter id="filter4_b_61_29" x="579.943" y="634.002" width="604.768" height="494.923" filterUnits="userSpaceOnUse" color-interpolation-filters="sRGB"> <feFlood flood-opacity="0" result="BackgroundImageFix"></feFlood> <feGaussianBlur in="BackgroundImageFix" stdDeviation="4"></feGaussianBlur> <feComposite in2="SourceAlpha" operator="in" result="effect1_backgroundBlur_61_29"></feComposite> <feBlend mode="normal" in="SourceGraphic" in2="effect1_backgroundBlur_61_29" result="shape"></feBlend> </filter> <filter id="filter5_b_61_29" x="815.818" y="583.062" width="604.768" height="494.923" filterUnits="userSpaceOnUse" color-interpolation-filters="sRGB"> <feFlood flood-opacity="0" result="BackgroundImageFix"></feFlood> <feGaussianBlur in="BackgroundImageFix" stdDeviation="4"></feGaussianBlur> <feComposite in2="SourceAlpha" operator="in" result="effect1_backgroundBlur_61_29"></feComposite> <feBlend mode="normal" in="SourceGraphic" in2="effect1_backgroundBlur_61_29" result="shape"></feBlend> </filter> <filter id="filter6_b_61_29" x="1025.68" y="488.147" width="604.768" height="494.923" filterUnits="userSpaceOnUse" color-interpolation-filters="sRGB"> <feFlood flood-opacity="0" result="BackgroundImageFix"></feFlood> <feGaussianBlur in="BackgroundImageFix" stdDeviation="4"></feGaussianBlur> <feComposite in2="SourceAlpha" operator="in" result="effect1_backgroundBlur_61_29"></feComposite> <feBlend mode="normal" in="SourceGraphic" in2="effect1_backgroundBlur_61_29" result="shape"></feBlend> </filter> <filter id="filter7_b_61_29" x="1214" y="350.277" width="604.768" height="494.923" filterUnits="userSpaceOnUse" color-interpolation-filters="sRGB"> <feFlood flood-opacity="0" result="BackgroundImageFix"></feFlood> <feGaussianBlur in="BackgroundImageFix" stdDeviation="4"></feGaussianBlur> <feComposite in2="SourceAlpha" operator="in" result="effect1_backgroundBlur_61_29"></feComposite> <feBlend mode="normal" in="SourceGraphic" in2="effect1_backgroundBlur_61_29" result="shape"></feBlend> </filter> <filter id="filter8_b_61_29" x="1369.35" y="177.358" width="604.768" height="494.923" filterUnits="userSpaceOnUse" color-interpolation-filters="sRGB"> <feFlood flood-opacity="0" result="BackgroundImageFix"></feFlood> <feGaussianBlur in="BackgroundImageFix" stdDeviation="4"></feGaussianBlur> <feComposite in2="SourceAlpha" operator="in" result="effect1_backgroundBlur_61_29"></feComposite> <feBlend mode="normal" in="SourceGraphic" in2="effect1_backgroundBlur_61_29" result="shape"></feBlend> </filter> <filter id="filter9_b_61_29" x="1487.07" y="-26.5531" width="604.768" height="494.923" filterUnits="userSpaceOnUse" color-interpolation-filters="sRGB"> <feFlood flood-opacity="0" result="BackgroundImageFix"></feFlood> <feGaussianBlur in="BackgroundImageFix" stdDeviation="4"></feGaussianBlur> <feComposite in2="SourceAlpha" operator="in" result="effect1_backgroundBlur_61_29"></feComposite> <feBlend mode="normal" in="SourceGraphic" in2="effect1_backgroundBlur_61_29" result="shape"></feBlend> </filter> <filter id="filter10_b_61_29" x="1559.34" y="-250.289" width="604.768" height="494.923" filterUnits="userSpaceOnUse" color-interpolation-filters="sRGB"> <feFlood flood-opacity="0" result="BackgroundImageFix"></feFlood> <feGaussianBlur in="BackgroundImageFix" stdDeviation="4"></feGaussianBlur> <feComposite in2="SourceAlpha" operator="in" result="effect1_backgroundBlur_61_29"></feComposite> <feBlend mode="normal" in="SourceGraphic" in2="effect1_backgroundBlur_61_29" result="shape"></feBlend> </filter> <filter id="filter11_b_61_29" x="1583.23" y="-481.678" width="604.768" height="494.923" filterUnits="userSpaceOnUse" color-interpolation-filters="sRGB"> <feFlood flood-opacity="0" result="BackgroundImageFix"></feFlood> <feGaussianBlur in="BackgroundImageFix" stdDeviation="4"></feGaussianBlur> <feComposite in2="SourceAlpha" operator="in" result="effect1_backgroundBlur_61_29"></feComposite> <feBlend mode="normal" in="SourceGraphic" in2="effect1_backgroundBlur_61_29" result="shape"></feBlend> </filter> <linearGradient id="paint0_linear_61_29" x1="14.382" y1="361.246" x2="14.382" y2="840.169" gradientUnits="userSpaceOnUse"> <stop stop-color="#1F35FF"></stop> <stop offset="1" stop-color="#1FFFBC"></stop> </linearGradient> <radialGradient id="paint1_radial_61_29" cx="0" cy="0" r="1" gradientUnits="userSpaceOnUse" gradientTransform="translate(14.382 545.785) rotate(90) scale(294.384 294.384)"> <stop offset="0.0001" stop-color="#1FFFBC"></stop> <stop offset="0.703125" stop-color="#1F35FF"></stop> <stop offset="1" stop-color="#121219"></stop> </radialGradient> <linearGradient id="paint2_linear_61_29" x1="203.249" y1="498.371" x2="203.249" y2="977.294" gradientUnits="userSpaceOnUse"> <stop stop-color="#1F35FF"></stop> <stop offset="1" stop-color="#1FFFBC"></stop> </linearGradient> <radialGradient id="paint3_radial_61_29" cx="0" cy="0" r="1" gradientUnits="userSpaceOnUse" gradientTransform="translate(203.249 682.91) rotate(90) scale(294.384 294.384)"> <stop offset="0.0001" stop-color="#1FFFBC"></stop> <stop offset="0.703125" stop-color="#1F35FF"></stop> <stop offset="1" stop-color="#121219"></stop> </radialGradient> <linearGradient id="paint4_linear_61_29" x1="413.491" y1="592.438" x2="413.491" y2="1071.36" gradientUnits="userSpaceOnUse"> <stop stop-color="#1F35FF"></stop> <stop offset="1" stop-color="#1FFFBC"></stop> </linearGradient> <radialGradient id="paint5_radial_61_29" cx="0" cy="0" r="1" gradientUnits="userSpaceOnUse" gradientTransform="translate(413.491 776.977) rotate(90) scale(294.384 294.384)"> <stop offset="0.0001" stop-color="#1FFFBC"></stop> <stop offset="0.703125" stop-color="#1F35FF"></stop> <stop offset="1" stop-color="#121219"></stop> </radialGradient> <linearGradient id="paint6_linear_61_29" x1="649.562" y1="642.468" x2="649.562" y2="1121.39" gradientUnits="userSpaceOnUse"> <stop stop-color="#1F35FF"></stop> <stop offset="1" stop-color="#1FFFBC"></stop> </linearGradient> <radialGradient id="paint7_radial_61_29" cx="0" cy="0" r="1" gradientUnits="userSpaceOnUse" gradientTransform="translate(649.562 827.007) rotate(90) scale(294.384 294.384)"> <stop offset="0.0001" stop-color="#1FFFBC"></stop> <stop offset="0.703125" stop-color="#1F35FF"></stop> <stop offset="1" stop-color="#121219"></stop> </radialGradient> <linearGradient id="paint8_linear_61_29" x1="882.327" y1="642.002" x2="882.327" y2="1120.93" gradientUnits="userSpaceOnUse"> <stop stop-color="#1F35FF"></stop> <stop offset="1" stop-color="#1FFFBC"></stop> </linearGradient> <radialGradient id="paint9_radial_61_29" cx="0" cy="0" r="1" gradientUnits="userSpaceOnUse" gradientTransform="translate(882.327 826.542) rotate(90) scale(294.384 294.384)"> <stop offset="0.0001" stop-color="#1FFFBC"></stop> <stop offset="0.703125" stop-color="#1F35FF"></stop> <stop offset="1" stop-color="#121219"></stop> </radialGradient> <linearGradient id="paint10_linear_61_29" x1="1118.2" y1="591.062" x2="1118.2" y2="1069.99" gradientUnits="userSpaceOnUse"> <stop stop-color="#1F35FF"></stop> <stop offset="1" stop-color="#1FFFBC"></stop> </linearGradient> <radialGradient id="paint11_radial_61_29" cx="0" cy="0" r="1" gradientUnits="userSpaceOnUse" gradientTransform="translate(1118.2 775.601) rotate(90) scale(294.384 294.384)"> <stop offset="0.0001" stop-color="#1FFFBC"></stop> <stop offset="0.703125" stop-color="#1F35FF"></stop> <stop offset="1" stop-color="#121219"></stop> </radialGradient> <linearGradient id="paint12_linear_61_29" x1="1328.07" y1="496.147" x2="1328.07" y2="975.07" gradientUnits="userSpaceOnUse"> <stop stop-color="#1F35FF"></stop> <stop offset="1" stop-color="#1FFFBC"></stop> </linearGradient> <radialGradient id="paint13_radial_61_29" cx="0" cy="0" r="1" gradientUnits="userSpaceOnUse" gradientTransform="translate(1328.07 680.686) rotate(90) scale(294.384 294.384)"> <stop offset="0.0001" stop-color="#1FFFBC"></stop> <stop offset="0.703125" stop-color="#1F35FF"></stop> <stop offset="1" stop-color="#121219"></stop> </radialGradient> <linearGradient id="paint14_linear_61_29" x1="1516.39" y1="358.277" x2="1516.39" y2="837.2" gradientUnits="userSpaceOnUse"> <stop stop-color="#1F35FF"></stop> <stop offset="1" stop-color="#1FFFBC"></stop> </linearGradient> <radialGradient id="paint15_radial_61_29" cx="0" cy="0" r="1" gradientUnits="userSpaceOnUse" gradientTransform="translate(1516.39 542.816) rotate(90) scale(294.384 294.384)"> <stop offset="0.0001" stop-color="#1FFFBC"></stop> <stop offset="0.703125" stop-color="#1F35FF"></stop> <stop offset="1" stop-color="#121219"></stop> </radialGradient> <linearGradient id="paint16_linear_61_29" x1="1671.73" y1="185.358" x2="1671.73" y2="664.281" gradientUnits="userSpaceOnUse"> <stop stop-color="#1F35FF"></stop> <stop offset="1" stop-color="#1FFFBC"></stop> </linearGradient> <radialGradient id="paint17_radial_61_29" cx="0" cy="0" r="1" gradientUnits="userSpaceOnUse" gradientTransform="translate(1671.73 369.897) rotate(90) scale(294.384 294.384)"> <stop offset="0.0001" stop-color="#1FFFBC"></stop> <stop offset="0.703125" stop-color="#1F35FF"></stop> <stop offset="1" stop-color="#121219"></stop> </radialGradient> <linearGradient id="paint18_linear_61_29" x1="1789.46" y1="-18.5531" x2="1789.46" y2="460.37" gradientUnits="userSpaceOnUse"> <stop stop-color="#1F35FF"></stop> <stop offset="1" stop-color="#1FFFBC"></stop> </linearGradient> <radialGradient id="paint19_radial_61_29" cx="0" cy="0" r="1" gradientUnits="userSpaceOnUse" gradientTransform="translate(1789.46 165.986) rotate(90) scale(294.384 294.384)"> <stop offset="0.0001" stop-color="#1FFFBC"></stop> <stop offset="0.703125" stop-color="#1F35FF"></stop> <stop offset="1" stop-color="#121219"></stop> </radialGradient> <linearGradient id="paint20_linear_61_29" x1="1861.73" y1="-242.289" x2="1861.73" y2="236.634" gradientUnits="userSpaceOnUse"> <stop stop-color="#1F35FF"></stop> <stop offset="1" stop-color="#1FFFBC"></stop> </linearGradient> <radialGradient id="paint21_radial_61_29" cx="0" cy="0" r="1" gradientUnits="userSpaceOnUse" gradientTransform="translate(1861.73 -57.7497) rotate(90) scale(294.384 294.384)"> <stop offset="0.0001" stop-color="#1FFFBC"></stop> <stop offset="0.703125" stop-color="#1F35FF"></stop> <stop offset="1" stop-color="#121219"></stop> </radialGradient> <linearGradient id="paint22_linear_61_29" x1="1885.62" y1="-473.678" x2="1885.62" y2="5.24472" gradientUnits="userSpaceOnUse"> <stop stop-color="#1F35FF"></stop> <stop offset="1" stop-color="#1FFFBC"></stop> </linearGradient> <radialGradient id="paint23_radial_61_29" cx="0" cy="0" r="1" gradientUnits="userSpaceOnUse" gradientTransform="translate(1885.62 -289.139) rotate(90) scale(294.384 294.384)"> <stop offset="0.0001" stop-color="#1FFFBC"></stop> <stop offset="0.703125" stop-color="#1F35FF"></stop> <stop offset="1" stop-color="#121219"></stop> </radialGradient> </defs> </svg> 